<?xml version="1.0" encoding="UTF-8" standalone="no"?>
<svg
   xmlns:dc="http://purl.org/dc/elements/1.1/"
   xmlns:cc="http://creativecommons.org/ns#"
   xmlns:rdf="http://www.w3.org/1999/02/22-rdf-syntax-ns#"
   xmlns:svg="http://www.w3.org/2000/svg"
   xmlns="http://www.w3.org/2000/svg"
   viewBox="0 0 2667.8401 873.86536"
   height="873.86536"
   width="2667.8401"
   xml:space="preserve"
   id="svg2"
   version="1.1"><metadata
     id="metadata8"><rdf:RDF><cc:Work
         rdf:about=""><dc:format>image/svg+xml</dc:format><dc:type
           rdf:resource="http://purl.org/dc/dcmitype/StillImage" /></cc:Work></rdf:RDF></metadata><defs
     id="defs6"><clipPath
       id="clipPath18"
       clipPathUnits="userSpaceOnUse"><path
         id="path16"
         d="M 0,655.399 H 2000.876 V 0 H 0 Z" /></clipPath></defs><g
     transform="matrix(1.3333333,0,0,-1.3333333,0,873.86533)"
     id="g10"><g
       id="g12"><g
         clip-path="url(#clipPath18)"
         id="g14"><g
           transform="translate(875.4171,295.112)"
           id="g20"><path
             id="path22"
             style="fill:#636362;fill-opacity:1;fill-rule:nonzero;stroke:none"
             d="m 0,0 c -5.127,-6.238 -11.339,-11.193 -18.646,-14.866 -7.303,-3.674 -15.357,-5.511 -24.155,-5.511 -7.607,0 -14.74,1.39 -21.4,4.164 -6.664,2.776 -12.464,6.558 -17.395,11.343 -4.93,4.783 -8.819,10.401 -11.66,16.852 -2.846,6.449 -4.266,13.391 -4.266,20.824 0,7.433 1.42,14.374 4.266,20.825 2.841,6.449 6.73,12.088 11.66,16.917 4.931,4.824 10.731,8.606 17.395,11.341 6.66,2.732 13.793,4.101 21.4,4.101 8.798,0 16.852,-1.84 24.155,-5.511 7.307,-3.676 13.393,-8.459 18.263,-14.354 l -13.71,-14.097 c -3.163,4.529 -7.242,8.18 -12.243,10.959 -4.996,2.773 -10.487,4.163 -16.465,4.163 -4.787,0 -9.292,-0.918 -13.519,-2.754 -4.232,-1.84 -7.929,-4.316 -11.087,-7.433 -3.163,-3.119 -5.661,-6.751 -7.498,-10.893 -1.838,-4.145 -2.755,-8.565 -2.755,-13.264 0,-4.613 0.917,-8.993 2.755,-13.135 1.837,-4.147 4.335,-7.776 7.498,-10.893 3.158,-3.119 6.855,-5.598 11.087,-7.434 4.227,-1.837 8.732,-2.754 13.519,-2.754 6.322,0 11.917,1.43 16.787,4.292 4.87,2.861 8.927,6.643 12.177,11.342 z" /></g><g
           transform="translate(966.5353,327.9183)"
           id="g24"><path
             id="path26"
             style="fill:#636362;fill-opacity:1;fill-rule:nonzero;stroke:none"
             d="m 0,0 c 0,4.699 -0.895,9.119 -2.694,13.264 -1.798,4.142 -4.261,7.773 -7.385,10.893 -3.124,3.117 -6.782,5.593 -10.978,7.433 -4.192,1.836 -8.641,2.754 -13.35,2.754 -4.792,0 -9.289,-0.918 -13.481,-2.754 -4.192,-1.84 -7.854,-4.316 -10.978,-7.433 -3.124,-3.12 -5.582,-6.751 -7.381,-10.893 C -68.046,9.119 -68.945,4.699 -68.945,0 c 0,-4.614 0.899,-9.015 2.698,-13.2 1.799,-4.186 4.257,-7.84 7.381,-10.957 3.124,-3.119 6.786,-5.598 10.978,-7.433 4.192,-1.838 8.689,-2.754 13.481,-2.754 4.709,0 9.158,0.916 13.35,2.754 4.196,1.835 7.854,4.314 10.978,7.433 3.124,3.117 5.587,6.771 7.385,10.957 C -0.895,-9.015 0,-4.614 0,0 m 19.867,0 c 0,-7.348 -1.43,-14.269 -4.292,-20.762 -2.859,-6.492 -6.761,-12.131 -11.709,-16.914 -4.952,-4.786 -10.708,-8.567 -17.281,-11.343 -6.574,-2.774 -13.568,-4.165 -20.992,-4.165 -7.425,0 -14.441,1.391 -21.057,4.165 -6.612,2.776 -12.395,6.557 -17.343,11.343 -4.953,4.783 -8.854,10.4 -11.712,16.852 -2.859,6.449 -4.288,13.391 -4.288,20.824 0,7.433 1.429,14.395 4.288,20.888 2.858,6.492 6.759,12.131 11.712,16.917 4.948,4.782 10.731,8.543 17.343,11.277 6.616,2.733 13.632,4.102 21.057,4.102 7.424,0 14.418,-1.369 20.992,-4.102 C -6.842,46.348 -1.086,42.566 3.866,37.742 8.814,32.913 12.716,27.274 15.575,20.825 18.437,14.373 19.867,7.433 19.867,0" /></g><g
           transform="translate(1086.8694,327.9183)"
           id="g28"><path
             id="path30"
             style="fill:#636362;fill-opacity:1;fill-rule:nonzero;stroke:none"
             d="m 0,0 c 0,4.699 -0.895,9.119 -2.694,13.264 -1.798,4.142 -4.261,7.773 -7.385,10.893 -3.124,3.117 -6.781,5.593 -10.978,7.433 -4.192,1.836 -8.641,2.754 -13.35,2.754 -4.792,0 -9.289,-0.918 -13.481,-2.754 -4.192,-1.84 -7.854,-4.316 -10.978,-7.433 -3.124,-3.12 -5.582,-6.751 -7.381,-10.893 C -68.046,9.119 -68.945,4.699 -68.945,0 c 0,-4.614 0.899,-9.015 2.698,-13.2 1.799,-4.186 4.257,-7.84 7.381,-10.957 3.124,-3.119 6.786,-5.598 10.978,-7.433 4.192,-1.838 8.689,-2.754 13.481,-2.754 4.709,0 9.158,0.916 13.35,2.754 4.197,1.835 7.854,4.314 10.978,7.433 3.124,3.117 5.587,6.771 7.385,10.957 C -0.895,-9.015 0,-4.614 0,0 m 19.867,0 c 0,-7.348 -1.43,-14.269 -4.292,-20.762 -2.859,-6.492 -6.761,-12.131 -11.709,-16.914 -4.952,-4.786 -10.708,-8.567 -17.281,-11.343 -6.574,-2.774 -13.568,-4.165 -20.992,-4.165 -7.425,0 -14.441,1.391 -21.057,4.165 -6.612,2.776 -12.395,6.557 -17.343,11.343 -4.953,4.783 -8.854,10.4 -11.712,16.852 -2.859,6.449 -4.288,13.391 -4.288,20.824 0,7.433 1.429,14.395 4.288,20.888 2.858,6.492 6.759,12.131 11.712,16.917 4.948,4.782 10.731,8.543 17.343,11.277 6.616,2.733 13.632,4.102 21.057,4.102 7.424,0 14.418,-1.369 20.992,-4.102 C -6.842,46.348 -1.086,42.566 3.866,37.742 8.814,32.913 12.716,27.274 15.575,20.825 18.437,14.373 19.867,7.433 19.867,0" /></g><g
           transform="translate(1174.269,344.9636)"
           id="g32"><path
             id="path34"
             style="fill:#636362;fill-opacity:1;fill-rule:nonzero;stroke:none"
             d="m 0,0 c 0,2.646 -0.491,5.124 -1.473,7.431 -0.982,2.307 -2.328,4.314 -4.036,6.023 -1.712,1.71 -3.718,3.076 -6.025,4.101 -2.307,1.026 -4.784,1.538 -7.429,1.538 h -13.203 v -38.702 h 13.203 c 2.645,0 5.122,0.533 7.429,1.601 2.307,1.069 4.313,2.501 6.025,4.295 1.708,1.794 3.054,3.864 4.036,6.214 C -0.491,-5.151 0,-2.65 0,0 m 19.867,-0.257 c 0,-4.87 -0.921,-9.42 -2.763,-13.649 -1.847,-4.23 -4.349,-7.903 -7.516,-11.02 -3.167,-3.121 -6.895,-5.556 -11.178,-7.305 -4.284,-1.753 -8.819,-2.628 -13.615,-2.628 H -32.166 V -68.306 H -52.028 V 34.087 h 36.844 c 4.792,0 9.328,-0.877 13.611,-2.628 4.28,-1.75 7.998,-4.164 11.169,-7.239 3.163,-3.076 5.665,-6.708 7.508,-10.894 1.842,-4.186 2.763,-8.715 2.763,-13.583" /></g><g
           transform="translate(1274.4797,276.6574)"
           id="g36"><path
             id="path38"
             style="fill:#636362;fill-opacity:1;fill-rule:nonzero;stroke:none"
             d="M 0,0 H -67.663 V 102.394 H 0 V 85.989 H -48.183 V 61.514 H -0.638 V 45.494 H -48.183 V 17.301 H 0 Z" /></g><g
           transform="translate(1340.9918,348.2934)"
           id="g40"><path
             id="path42"
             style="fill:#636362;fill-opacity:1;fill-rule:nonzero;stroke:none"
             d="m 0,0 c 0,2.392 -0.448,4.57 -1.347,6.536 -0.895,1.966 -2.115,3.673 -3.653,5.126 -1.538,1.453 -3.354,2.583 -5.444,3.397 -2.093,0.811 -4.34,1.217 -6.729,1.217 h -14.354 v -31.909 h 14.354 c 2.389,0 4.636,0.363 6.729,1.088 2.09,0.725 3.906,1.773 5.444,3.141 1.538,1.364 2.758,3.011 3.653,4.933 C -0.448,-4.549 0,-2.392 0,0 M 25.888,-71.636 H 4.014 l -7.29,23.322 c -0.764,2.564 -1.724,4.914 -2.875,7.049 -1.152,2.135 -2.538,3.973 -4.154,5.511 -1.62,1.538 -3.558,2.735 -5.817,3.588 -2.259,0.854 -4.922,1.282 -7.989,1.282 h -7.416 V -71.636 H -51.133 V 30.758 l 40.424,0.128 c 4.349,0 8.398,-0.749 12.151,-2.244 3.754,-1.494 6.995,-3.567 9.723,-6.214 2.728,-2.65 4.862,-5.768 6.395,-9.356 1.533,-3.588 2.303,-7.477 2.303,-11.662 0,-2.991 -0.47,-5.893 -1.404,-8.713 -0.93,-2.819 -2.246,-5.428 -3.944,-7.817 -1.699,-2.394 -3.715,-4.508 -6.044,-6.345 -2.337,-1.838 -4.904,-3.226 -7.702,-4.164 3.224,-1.197 5.856,-2.928 7.894,-5.19 2.037,-2.265 3.649,-4.979 4.839,-8.139 0.591,-1.453 1.143,-2.904 1.655,-4.357 0.509,-1.454 1.039,-2.97 1.591,-4.549 0.551,-1.581 1.147,-3.291 1.785,-5.126 0.634,-1.838 1.334,-3.867 2.098,-6.087 0.939,-2.819 1.816,-5.235 2.629,-7.242 0.808,-2.007 1.685,-3.779 2.628,-5.317" /></g><g
           transform="translate(1443.514,313.693)"
           id="g44"><path
             id="path46"
             style="fill:#636362;fill-opacity:1;fill-rule:nonzero;stroke:none"
             d="M 0,0 -17.043,36.907 -34.342,0 Z M 39.086,-37.036 H 17.299 L 7.82,-16.531 h -49.725 l -9.61,-20.505 h -21.787 l 48.439,102.523 h 15.51 z" /></g><g
           transform="translate(1546.5488,361.3656)"
           id="g48"><path
             id="path50"
             style="fill:#636362;fill-opacity:1;fill-rule:nonzero;stroke:none"
             d="M 0,0 H -28.325 V -84.708 H -48.444 V 0 h -28.32 V 17.685 H 0 Z" /></g><path
           id="path52"
           style="fill:#636362;fill-opacity:1;fill-rule:nonzero;stroke:none"
           d="m 1579.223,276.657 h -19.863 v 102.394 h 19.863 z" /><g
           transform="translate(1686.8713,379.1796)"
           id="g54"><path
             id="path56"
             style="fill:#636362;fill-opacity:1;fill-rule:nonzero;stroke:none"
             d="M 0,0 -38.83,-102.522 H -57.028 L -96.757,0 h 22.043 L -48.057,-72.023 -21.787,0 Z" /></g><g
           transform="translate(1743.5172,313.693)"
           id="g58"><path
             id="path60"
             style="fill:#636362;fill-opacity:1;fill-rule:nonzero;stroke:none"
             d="M 0,0 -17.043,36.907 -34.342,0 Z M 39.086,-37.036 H 17.299 L 7.82,-16.531 h -49.725 l -9.61,-20.505 h -21.787 l 48.439,102.523 h 15.51 z" /></g><g
           transform="translate(848.6627,475.5161)"
           id="g62"><path
             id="path64"
             style="fill:#636362;fill-opacity:1;fill-rule:nonzero;stroke:none"
             d="m 0,0 h -4.427 c -0.921,0 -1.669,-0.747 -1.669,-1.668 v -30.971 c 0,-4.477 -1.533,-8.189 -4.683,-11.343 -3.158,-3.154 -6.868,-4.688 -11.347,-4.688 -4.479,0 -8.189,1.534 -11.339,4.688 -3.158,3.158 -4.692,6.868 -4.692,11.343 v 30.971 c 0,0.921 -0.747,1.668 -1.668,1.668 h -4.422 c -0.922,0 -1.668,-0.747 -1.668,-1.668 v -30.971 c 0,-6.538 2.345,-12.199 6.972,-16.821 4.627,-4.625 10.283,-6.971 16.817,-6.971 6.534,0 12.194,2.346 16.826,6.971 4.622,4.626 6.968,10.287 6.968,16.821 V -1.668 C 1.668,-0.747 0.921,0 0,0" /></g><g
           transform="translate(948.3907,475.5161)"
           id="g66"><path
             id="path68"
             style="fill:#636362;fill-opacity:1;fill-rule:nonzero;stroke:none"
             d="m 0,0 h -4.427 c -0.921,0 -1.668,-0.747 -1.668,-1.668 v -38.256 l -36.936,39.396 c -0.469,0.5 -1.194,0.656 -1.828,0.411 -0.639,-0.252 -1.056,-0.867 -1.056,-1.551 v -53.094 c 0,-0.922 0.747,-1.669 1.668,-1.669 h 4.423 c 0.92,0 1.668,0.747 1.668,1.669 v 38.258 l 36.94,-39.399 c 0.321,-0.343 0.765,-0.528 1.216,-0.528 0.204,0 0.413,0.039 0.613,0.117 0.638,0.253 1.055,0.867 1.055,1.552 V -1.668 C 1.668,-0.747 0.921,0 0,0" /></g><g
           transform="translate(1008.2949,475.5161)"
           id="g70"><path
             id="path72"
             style="fill:#636362;fill-opacity:1;fill-rule:nonzero;stroke:none"
             d="m 0,0 h -4.423 c -0.921,0 -1.668,-0.747 -1.668,-1.668 v -53.094 c 0,-0.922 0.747,-1.669 1.668,-1.669 H 0 c 0.921,0 1.668,0.747 1.668,1.669 V -1.668 C 1.668,-0.747 0.921,0 0,0" /></g><g
           transform="translate(1116.8685,475.5161)"
           id="g74"><path
             id="path76"
             style="fill:#636362;fill-opacity:1;fill-rule:nonzero;stroke:none"
             d="m 0,0 h -5.087 c -0.63,0 -1.208,-0.356 -1.49,-0.923 L -26.548,-40.856 -46.515,-0.923 C -46.797,-0.356 -47.375,0 -48.005,0 h -5.087 c -0.578,0 -1.116,-0.3 -1.421,-0.79 -0.304,-0.494 -0.33,-1.108 -0.069,-1.625 l 24.02,-48.001 2.519,-5.087 c 0.278,-0.567 0.856,-0.926 1.491,-0.928 h 0.004 c 0.63,0 1.203,0.354 1.49,0.917 L 1.495,-2.413 C 1.751,-1.896 1.725,-1.282 1.421,-0.79 1.117,-0.3 0.578,0 0,0" /></g><g
           transform="translate(1207.7488,475.5161)"
           id="g78"><path
             id="path80"
             style="fill:#636362;fill-opacity:1;fill-rule:nonzero;stroke:none"
             d="m 0,0 h -35.398 c -0.92,0 -1.668,-0.747 -1.668,-1.668 v -53.094 c 0,-0.922 0.748,-1.669 1.668,-1.669 H 0 c 0.921,0 1.668,0.747 1.668,1.669 v 4.424 c 0,0.921 -0.747,1.668 -1.668,1.668 h -29.307 v 16.574 H 0 c 0.921,0 1.668,0.747 1.668,1.668 v 4.425 c 0,0.921 -0.747,1.668 -1.668,1.668 H -29.307 V -7.761 H 0 c 0.921,0 1.668,0.747 1.668,1.668 v 4.425 C 1.668,-0.747 0.921,0 0,0" /></g><g
           transform="translate(1269.3212,467.755)"
           id="g82"><path
             id="path84"
             style="fill:#636362;fill-opacity:1;fill-rule:nonzero;stroke:none"
             d="m 0,0 h 14.927 c 5.73,0 8.284,-2.557 8.284,-8.287 0,-5.73 -2.554,-8.287 -8.284,-8.287 H 0 Z m 12.181,-24.335 h 2.746 c 10.5,0 16.048,5.55 16.048,16.048 0,10.498 -5.548,16.048 -16.048,16.048 H -6.091 c -0.921,0 -1.668,-0.747 -1.668,-1.668 v -53.094 c 0,-0.922 0.747,-1.669 1.668,-1.669 h 4.423 c 0.921,0 1.668,0.747 1.668,1.669 v 22.666 h 1.998 l 20.745,-23.763 c 0.316,-0.363 0.773,-0.572 1.255,-0.572 h 5.752 c 0.656,0 1.247,0.383 1.521,0.978 0.269,0.595 0.165,1.294 -0.266,1.787 z" /></g><g
           transform="translate(1375.7791,450.6123)"
           id="g86"><path
             id="path88"
             style="fill:#636362;fill-opacity:1;fill-rule:nonzero;stroke:none"
             d="m 0,0 -9.527,4.694 c -1.638,0.795 -2.663,1.753 -3.041,2.854 -0.587,1.675 -0.708,2.598 -0.708,3.078 0,0.984 0.23,1.927 0.708,2.88 0.829,1.656 1.803,2.687 2.884,3.068 1.668,0.579 2.585,0.701 3.059,0.701 0.981,0 1.968,-0.241 2.954,-0.721 1.533,-0.732 2.576,-1.844 3.193,-3.399 0.183,-0.468 0.569,-0.828 1.047,-0.978 0.482,-0.152 1.004,-0.085 1.421,0.198 l 3.762,2.478 c 0.699,0.459 0.947,1.364 0.586,2.118 -1.403,2.902 -3.627,5.111 -6.599,6.562 -3.588,1.79 -7.364,2.01 -10.978,0.706 -3.749,-1.294 -6.542,-3.749 -8.302,-7.303 -0.99,-2.026 -1.494,-4.118 -1.494,-6.221 0,-1.579 0.286,-3.18 0.838,-4.735 1.264,-3.758 3.706,-6.538 7.264,-8.267 l 9.514,-4.69 c 2.198,-1.075 3.662,-2.733 4.47,-5.072 0.344,-0.991 0.522,-1.966 0.522,-2.898 0,-1.294 -0.313,-2.578 -0.935,-3.827 -1.059,-2.17 -2.372,-3.539 -3.896,-4.067 -2.207,-0.764 -3.459,-0.925 -4.119,-0.925 -1.299,0 -2.598,0.315 -3.87,0.936 -2.199,1.075 -3.659,2.744 -4.393,4.81 -0.039,0.262 -0.108,0.529 -0.191,0.795 -0.16,0.499 -0.547,0.895 -1.043,1.066 -0.504,0.176 -1.046,0.098 -1.481,-0.193 l -3.806,-2.566 c -0.643,-0.434 -0.899,-1.253 -0.625,-1.978 1.538,-4.021 4.27,-7.019 8.137,-8.917 2.367,-1.138 4.8,-1.714 7.229,-1.714 1.825,0 3.671,0.313 5.491,0.929 4.309,1.469 7.52,4.297 9.549,8.422 1.138,2.37 1.716,4.803 1.716,7.229 0,1.792 -0.313,3.626 -0.938,5.463 C 6.899,-5.213 4.075,-2.025 0,0" /></g><g
           transform="translate(1438.928,419.0854)"
           id="g90"><path
             id="path92"
             style="fill:#636362;fill-opacity:1;fill-rule:nonzero;stroke:none"
             d="m 0,0 h 4.423 c 0.921,0 1.668,0.747 1.668,1.668 v 53.094 c 0,0.922 -0.747,1.669 -1.668,1.669 H 0 c -0.921,0 -1.668,-0.747 -1.668,-1.669 V 1.668 C -1.668,0.747 -0.921,0 0,0" /></g><g
           transform="translate(1514.6278,426.8465)"
           id="g94"><path
             id="path96"
             style="fill:#636362;fill-opacity:1;fill-rule:nonzero;stroke:none"
             d="M 0,0 H -9.705 V 40.909 H 0 c 5.696,0 10.427,-1.962 14.462,-5.994 4.032,-4.031 5.991,-8.76 5.991,-14.46 0,-5.699 -1.959,-10.431 -5.991,-14.462 C 10.427,1.961 5.696,0 0,0 M 19.962,40.416 C 14.489,45.891 7.772,48.67 0,48.67 h -15.796 c -0.921,0 -1.668,-0.747 -1.668,-1.669 V -6.093 c 0,-0.921 0.747,-1.668 1.668,-1.668 H 0 c 7.772,0 14.484,2.778 19.958,8.254 5.483,5.476 8.259,12.193 8.259,19.962 0,7.768 -2.776,14.484 -8.255,19.961" /></g><g
           transform="translate(1630.9042,444.5453)"
           id="g98"><path
             id="path100"
             style="fill:#636362;fill-opacity:1;fill-rule:nonzero;stroke:none"
             d="m 0,0 h -15.401 l 7.699,15.396 z m -3.645,24.967 -2.567,5.087 c -0.287,0.563 -0.86,0.917 -1.49,0.917 h -0.005 c -0.634,-0.002 -1.212,-0.361 -1.49,-0.928 l -26.54,-53.088 c -0.26,-0.517 -0.234,-1.131 0.07,-1.624 0.304,-0.491 0.843,-0.791 1.421,-0.791 h 5.087 c 0.63,0 1.208,0.356 1.49,0.923 l 8.389,16.776 H 3.88 l 8.389,-16.776 c 0.282,-0.567 0.86,-0.923 1.49,-0.923 h 5.087 c 0.578,0 1.116,0.3 1.421,0.791 0.304,0.49 0.33,1.105 0.073,1.622 z" /></g><g
           transform="translate(1721.0287,426.8465)"
           id="g102"><path
             id="path104"
             style="fill:#636362;fill-opacity:1;fill-rule:nonzero;stroke:none"
             d="M 0,0 H -9.705 V 40.909 H 0 c 5.696,0 10.426,-1.962 14.462,-5.994 4.032,-4.031 5.991,-8.76 5.991,-14.46 0,-5.699 -1.959,-10.431 -5.991,-14.462 C 10.426,1.961 5.696,0 0,0 M -15.796,-7.761 H 0 c 7.772,0 14.484,2.778 19.958,8.254 5.482,5.476 8.259,12.193 8.259,19.962 0,7.768 -2.777,14.484 -8.255,19.961 C 14.488,45.891 7.772,48.67 0,48.67 h -15.796 c -0.921,0 -1.668,-0.747 -1.668,-1.669 V -6.093 c 0,-0.921 0.747,-1.668 1.668,-1.668" /></g><g
           transform="translate(841.6161,208.5336)"
           id="g106"><path
             id="path108"
             style="fill:#636362;fill-opacity:1;fill-rule:nonzero;stroke:none"
             d="m 0,0 c 0,-5.7 -1.96,-10.431 -5.991,-14.462 -4.036,-4.032 -8.767,-5.994 -14.462,-5.994 h -9.705 v 40.909 h 9.705 c 5.695,0 10.426,-1.961 14.462,-5.993 C -1.96,10.428 0,5.7 0,0 M -20.453,28.214 H -36.25 c -0.92,0 -1.668,-0.747 -1.668,-1.668 v -53.094 c 0,-0.921 0.748,-1.669 1.668,-1.669 h 15.797 c 7.772,0 14.484,2.779 19.957,8.255 5.483,5.476 8.259,12.192 8.259,19.962 0,7.768 -2.776,14.484 -8.254,19.96 -5.474,5.476 -12.19,8.254 -19.962,8.254" /></g><g
           transform="translate(942.6525,236.748)"
           id="g110"><path
             id="path112"
             style="fill:#636362;fill-opacity:1;fill-rule:nonzero;stroke:none"
             d="m 0,0 h -35.398 c -0.921,0 -1.668,-0.747 -1.668,-1.668 v -53.095 c 0,-0.921 0.747,-1.668 1.668,-1.668 H 0 c 0.921,0 1.668,0.747 1.668,1.668 v 4.425 c 0,0.921 -0.747,1.668 -1.668,1.668 h -29.307 v 16.574 H 0 c 0.921,0 1.668,0.747 1.668,1.668 v 4.425 c 0,0.921 -0.747,1.668 -1.668,1.668 H -29.307 V -7.761 H 0 c 0.921,0 1.668,0.747 1.668,1.668 v 4.425 C 1.668,-0.747 0.921,0 0,0" /></g><g
           transform="translate(1070.4069,228.987)"
           id="g114"><path
             id="path116"
             style="fill:#636362;fill-opacity:1;fill-rule:nonzero;stroke:none"
             d="m 0,0 c 5.7,0 10.439,-1.955 14.475,-5.965 2.072,-2.1 3.632,-4.455 4.636,-7.003 0.169,-0.437 0.517,-0.78 0.951,-0.947 0.439,-0.163 0.921,-0.146 1.347,0.065 l 3.984,1.992 c 0.777,0.391 1.125,1.314 0.799,2.122 -1.382,3.378 -3.467,6.493 -6.212,9.271 C 14.488,4.994 7.768,7.761 0,7.761 c -7.772,0 -14.489,-2.776 -19.967,-8.254 -5.474,-5.478 -8.25,-12.193 -8.25,-19.96 0,-7.768 2.776,-14.485 8.255,-19.963 5.478,-5.478 12.194,-8.254 19.962,-8.254 7.768,0 14.488,2.785 19.98,8.276 2.741,2.739 4.83,5.841 6.212,9.221 0.326,0.808 -0.022,1.731 -0.799,2.122 l -3.984,1.992 c -0.426,0.213 -0.908,0.235 -1.347,0.065 -0.434,-0.167 -0.782,-0.51 -0.951,-0.947 -0.999,-2.544 -2.559,-4.883 -4.632,-6.953 -4.044,-4.047 -8.784,-6.015 -14.479,-6.015 -5.7,0 -10.431,1.96 -14.463,5.993 -4.031,4.034 -5.995,8.765 -5.995,14.463 0,5.695 1.964,10.426 6,14.46 C -10.431,-1.96 -5.7,0 0,0" /></g><g
           transform="translate(1175.4398,188.078)"
           id="g118"><path
             id="path120"
             style="fill:#636362;fill-opacity:1;fill-rule:nonzero;stroke:none"
             d="m 0,0 c -5.699,0 -10.431,1.96 -14.462,5.993 -4.032,4.034 -5.995,8.765 -5.995,14.463 0,5.695 1.963,10.426 5.999,14.46 4.027,4.033 8.759,5.993 14.458,5.993 5.696,0 10.427,-1.962 14.463,-5.993 4.031,-4.032 5.99,-8.761 5.99,-14.46 0,-5.7 -1.959,-10.431 -5.99,-14.463 C 10.427,1.962 5.696,0 0,0 m 0,48.67 c -7.772,0 -14.488,-2.776 -19.967,-8.254 -5.473,-5.478 -8.25,-12.193 -8.25,-19.96 0,-7.768 2.777,-14.485 8.255,-19.963 5.478,-5.478 12.194,-8.254 19.962,-8.254 7.772,0 14.484,2.778 19.958,8.254 5.483,5.476 8.259,12.193 8.259,19.963 0,7.767 -2.776,14.484 -8.255,19.96 C 14.488,45.892 7.772,48.67 0,48.67" /></g><g
           transform="translate(1290.4694,188.078)"
           id="g122"><path
             id="path124"
             style="fill:#636362;fill-opacity:1;fill-rule:nonzero;stroke:none"
             d="m 0,0 h -24.88 v 47.002 c 0,0.921 -0.747,1.668 -1.668,1.668 h -4.423 c -0.921,0 -1.668,-0.747 -1.668,-1.668 V -6.093 c 0,-0.921 0.747,-1.668 1.668,-1.668 H 0 c 0.921,0 1.668,0.747 1.668,1.668 v 4.425 C 1.668,-0.747 0.921,0 0,0" /></g><g
           transform="translate(1360.4656,188.078)"
           id="g126"><path
             id="path128"
             style="fill:#636362;fill-opacity:1;fill-rule:nonzero;stroke:none"
             d="m 0,0 c -5.7,0 -10.431,1.96 -14.462,5.993 -4.032,4.034 -5.995,8.765 -5.995,14.463 0,5.695 1.963,10.426 5.999,14.46 4.027,4.033 8.758,5.993 14.458,5.993 5.696,0 10.427,-1.962 14.463,-5.993 4.031,-4.032 5.99,-8.761 5.99,-14.46 0,-5.7 -1.959,-10.431 -5.99,-14.463 C 10.427,1.962 5.696,0 0,0 m 0,48.67 c -7.772,0 -14.488,-2.776 -19.967,-8.254 -5.473,-5.478 -8.25,-12.193 -8.25,-19.96 0,-7.768 2.777,-14.485 8.255,-19.963 5.478,-5.478 12.194,-8.254 19.962,-8.254 7.772,0 14.484,2.778 19.958,8.254 5.483,5.476 8.259,12.193 8.259,19.963 0,7.767 -2.776,14.484 -8.255,19.96 C 14.488,45.892 7.772,48.67 0,48.67" /></g><g
           transform="translate(1484.1317,236.7369)"
           id="g130"><path
             id="path132"
             style="fill:#636362;fill-opacity:1;fill-rule:nonzero;stroke:none"
             d="m 0,0 c -0.721,0.098 -1.442,-0.332 -1.725,-1.019 l -15.713,-37.717 -15.714,37.717 c -0.286,0.687 -0.99,1.119 -1.724,1.019 -0.734,-0.08 -1.33,-0.636 -1.46,-1.366 l -9.293,-53.099 c -0.086,-0.484 0.048,-0.984 0.365,-1.36 0.317,-0.378 0.787,-0.595 1.277,-0.595 h 4.645 c 0.812,0 1.507,0.587 1.646,1.388 l 5.366,31.51 13.354,-31.87 c 0.512,-1.247 2.563,-1.247 3.076,0 l 13.354,31.87 5.361,-31.51 C 2.954,-55.833 3.65,-56.42 4.462,-56.42 H 9.11 c 0.491,0 0.96,0.217 1.277,0.595 0.318,0.376 0.452,0.876 0.365,1.36 L 1.46,-1.366 C 1.33,-0.636 0.734,-0.08 0,0" /></g><g
           transform="translate(1567.2175,212.4132)"
           id="g134"><path
             id="path136"
             style="fill:#636362;fill-opacity:1;fill-rule:nonzero;stroke:none"
             d="M 0,0 H -11.608 V 16.574 H 0 c 5.73,0 8.285,-2.557 8.285,-8.287 C 8.285,2.557 5.73,0 0,0 M 3.319,-24.335 H -11.608 V -7.761 H 3.319 c 5.73,0 8.285,-2.557 8.285,-8.287 0,-5.73 -2.555,-8.287 -8.285,-8.287 m 9.775,21.971 C 15.058,0.274 16.048,3.844 16.048,8.287 16.048,18.785 10.5,24.335 0,24.335 h -17.699 c -0.921,0 -1.668,-0.748 -1.668,-1.668 v -53.095 c 0,-0.921 0.747,-1.668 1.668,-1.668 H 3.319 c 10.5,0 16.048,5.55 16.048,16.048 0,6.521 -2.107,11.113 -6.273,13.684" /></g><g
           transform="translate(1646.4539,236.748)"
           id="g138"><path
             id="path140"
             style="fill:#636362;fill-opacity:1;fill-rule:nonzero;stroke:none"
             d="m 0,0 h -4.422 c -0.922,0 -1.669,-0.747 -1.669,-1.668 v -53.095 c 0,-0.921 0.747,-1.668 1.669,-1.668 H 0 c 0.921,0 1.668,0.747 1.668,1.668 V -1.668 C 1.668,-0.747 0.921,0 0,0" /></g><g
           transform="translate(1734.1049,205.7772)"
           id="g142"><path
             id="path144"
             style="fill:#636362;fill-opacity:1;fill-rule:nonzero;stroke:none"
             d="m 0,0 h -15.401 l 7.698,15.396 z m 20.34,-23.047 -23.985,48.014 -2.567,5.087 c -0.287,0.563 -0.861,0.917 -1.491,0.917 h -0.004 c -0.634,-0.002 -1.212,-0.361 -1.49,-0.928 l -26.54,-53.088 c -0.26,-0.517 -0.234,-1.131 0.07,-1.624 0.304,-0.491 0.842,-0.791 1.42,-0.791 h 5.088 c 0.63,0 1.207,0.356 1.49,0.923 l 8.389,16.776 H 3.879 l 8.389,-16.776 c 0.283,-0.567 0.86,-0.923 1.49,-0.923 h 5.088 c 0.578,0 1.116,0.3 1.42,0.791 0.304,0.49 0.331,1.105 0.074,1.622" /></g><g
           transform="translate(326.797,534.4562)"
           id="g146"><path
             id="path148"
             style="fill:#83bc32;fill-opacity:1;fill-rule:nonzero;stroke:none"
             d="m 0,0 h 150.836 v -232.516 c 0,-41.652 -33.766,-75.418 -75.418,-75.418 -41.653,0 -75.418,33.766 -75.418,75.418 z" /></g><g
           transform="translate(668.893,180.8463)"
           id="g150"><path
             id="path152"
             style="fill:#00adc9;fill-opacity:1;fill-rule:nonzero;stroke:none"
             d="M 0,0 C -62.136,0 -117.287,29.904 -151.848,76.105 -170.589,31.403 -214.753,0 -266.259,0 -334.749,0 -390.271,55.522 -390.271,124.012 V 353.609 H -450.62 V 124.562 c 0,-101.879 82.587,-184.466 184.465,-184.466 H 17.921 V 0.867 C 12.019,0.313 6.047,0 0,0" /></g><g
           transform="translate(574.1287,534.4553)"
           id="g154"><path
             id="path156"
             style="fill:#00adc9;fill-opacity:1;fill-rule:nonzero;stroke:none"
             d="M 0,0 H -57.562 V -51.353 C -42.133,-30.541 -22.524,-13.035 0,0" /></g><g
           transform="translate(686.8138,273.4922)"
           id="g158"><path
             id="path160"
             style="fill:#83bc32;fill-opacity:1;fill-rule:nonzero;stroke:none"
             d="m 0,0 c -5.814,-1.069 -11.797,-1.656 -17.921,-1.656 -54.414,0 -98.524,44.112 -98.524,98.526 0,54.414 44.11,98.524 98.524,98.524 6.124,0 12.107,-0.588 17.921,-1.656 v 45.819 c -5.876,0.732 -11.848,1.151 -17.921,1.151 -79.44,0 -143.839,-64.398 -143.839,-143.838 0,-79.442 64.399,-143.84 143.839,-143.84 6.073,0 12.045,0.42 17.921,1.151 z" /></g><g
           transform="translate(686.8138,336.5859)"
           id="g162"><path
             id="path164"
             style="fill:#cbd50b;fill-opacity:1;fill-rule:nonzero;stroke:none"
             d="m 0,0 c -5.347,-2.844 -11.442,-4.467 -17.921,-4.467 -21.12,0 -38.241,17.122 -38.241,38.243 0,21.121 17.121,38.242 38.241,38.242 6.479,0 12.574,-1.624 17.921,-4.468 v 35.202 c -5.726,1.483 -11.731,2.275 -17.921,2.275 -39.351,0 -71.251,-31.9 -71.251,-71.251 0,-39.351 31.9,-71.252 71.251,-71.252 6.19,0 12.195,0.791 17.921,2.275 z" /></g><g
           transform="translate(687.3009,370.3616)"
           id="g166"><path
             id="path168"
             style="fill:#00adc9;fill-opacity:1;fill-rule:nonzero;stroke:none"
             d="m 0,0 c 0,-10.166 -8.242,-18.407 -18.407,-18.407 -10.167,0 -18.408,8.241 -18.408,18.407 0,10.166 8.241,18.407 18.408,18.407 C -8.242,18.407 0,10.166 0,0" /></g></g></g></g></svg>